<svg xmlns="http://www.w3.org/2000/svg" xmlns:xlink="http://www.w3.org/1999/xlink" data-name="Layer 15" height="526" preserveAspectRatio="xMidYMid meet" version="1.0" viewBox="122.0 -9.5 266.7 525.9" width="267" zoomAndPan="magnify"><g id="change1_1"><path d="M291.509,213.411l5.576,14.866s-5.974,9.425-20.177,16.992a26.778,26.778,0,0,1-26.017,0l1.2-23.1,13.8-15.448,17.746,7.965Zm-43.426,255.4c-.341,1.7-7.72,8.287-7.72,8.287s4.087,6.13,5.79,7.265a34.363,34.363,0,0,0,4.768,2.384l15.211-.114,7.635-10.724.425-21.061-26.045,3.525S248.424,467.112,248.083,468.815Zm107.4,2.651c-.7-1.509-4.927-19-4.927-19l-27.55,5.228,2.739,17.41,2.288,6.12,7.039,3.017s15.182.6,15.484.6,8.59-10.254,8.59-10.254S356.191,472.973,355.487,471.466ZM303.5,52.767s-4.582-18.209-7.6-20.583-20.88-9.491-20.88-9.491l-24.232,3.078-3.261,15.7s-2.9,51.263,20.054,53.6a54.412,54.412,0,0,0,8.661.175v7.486s4.457,6.794,14.417,6.794a17.127,17.127,0,0,0,14.416-7.572V74.236h-.267C304.357,65.04,303.5,52.767,303.5,52.767Zm-166.357,158.9-2.259-4.871c-9.472,3.1-11.507,16.257-11.507,16.257l.189-.07c-1.586,8.779,4.532,16.136,8.817,16.136,6.143,0,16.491.892,16.491-11.921C148.875,218.8,141.6,213.588,137.144,211.662Zm144.314-58.128H228.842v12.4l-22.133,14.5H155.48v-8.581l-20.595,18.891H245.372Zm-52.616-26.9h-49.52l-23.842,17.72h51.229Z" fill="#ffb703"/></g><g id="change2_1"><path d="M356.945,454.852s-21.5,16.165-38.935,8.365L299.869,344.509,278.552,459.546s-13.643,5-21.945,3.489c-13.267-2.41-14.2-6.765-14.2-6.765l3.607-135.745V280.149s65.249,12.389,104.569-13.764Zm-128.1-288.914V126.631l-22.133,17.72H155.48v36.086h51.229ZM155.48,143.276v1.075l1.834-1.363Zm112,84.669c4.854-6.791-8.3-6.39-5.083-11.854,2.075-3.52,12.456-1.553,16.934-.52l1.712-1.788v-59.82l-35.025,36.119-.645.665H134.885v21.93c4.453,1.926,10.868,6.119,10.868,14.516,0,11.1-5.425,11.91-10.868,11.929v11.231H246.017Z" fill="#fb8500"/></g><g id="change3_1"><path d="M381.689,201.373c-.045.051-.062.094-.108.144-5.044,5.566-14.762,10.566-26.01,14.907.966,23.874,1.374,43.05,1.374,43.05s3.313,7.458-15.138,15.7-47.043,12.562-47.043,12.562l-44.734-3.925s-11.157,1.177-7.582-11.778c.751-2.722,1.183-10.762,1.4-21.682h2.166l6.74-7.038c1.93,2.946,9.977,2.22,17.016,1.427,8.731-.985,18.952-11.286,18.952-11.286l-3.707-14.664-.869-3.438h-4.611l1.5-1.571v-59.82l.416-.429H228.842V131.957a66.162,66.162,0,0,1,25.384-18.227s11.69-12.851,38.645-12.851c18.349,0,35.686,1.543,46.6,13.5a25.788,25.788,0,0,1,6.573,4.067c13.14,10.915,41.853,52.892,41.124,72.3A12.951,12.951,0,0,1,381.689,201.373ZM301.738,49.114c.146,1.458,2.04,22,12.821,12.967s20.688-44.728-9.033-58.162S260.507,15.9,260.507,15.9s23.819,21.36,24.3,21.528S301.593,47.658,301.738,49.114Z" fill="#4482c3"/></g><g id="change4_1"><path d="M272.428,15.589l17.134,23.492L273.841,33.6c-18.016-2.561-26.317,7.861-26.317,7.861a59.817,59.817,0,0,1-18.635-14.838c-8.213-9.979,2.826-16.6,2.826-16.6s6.006-3.444,18.458-5.829S272.428,15.589,272.428,15.589Zm-18.453,464.1c-10.709-1.2-12.02-6.336-12.02-6.336l-19.56,14.1S210.7,495.861,210.7,506.132s26.991,3.934,26.991,3.934l27.535-12.457s11.583-3.06,8.414-22.51C273.643,475.1,264.684,480.891,253.975,479.688ZM377,487.447l-19.559-14.1s-1.311,5.134-12.02,6.336-19.669-4.589-19.669-4.589c-3.169,19.45,8.414,22.51,8.414,22.51L361.7,510.066s26.989,6.338,26.989-3.934S377,487.447,377,487.447Z" fill="#1d4976"/></g><g id="change5_1"><path d="M280.554,44.468A89.019,89.019,0,0,0,273.841,33.6s30.734,2.031,41.42,24.11c0,0,2.827,10.157-6.094,21.814l-4.239,4.593s-8.742-6.8-11.48-17.751c0,0,7.472-8.959,3.973-15.808-4.239-8.3-11.039.087-11.039.087l-2.3,6.36S282.85,49.237,280.554,44.468Zm-29.5,11.638a.93.93,0,0,0,.774-.414,4.41,4.41,0,0,1,2.593-1.783,3.9,3.9,0,0,1,3.114.991.942.942,0,0,0,1.3-.18.929.929,0,0,0-.18-1.3,5.683,5.683,0,0,0-4.565-1.332,6.223,6.223,0,0,0-3.808,2.593.928.928,0,0,0,.27,1.278A1.049,1.049,0,0,0,251.053,56.106Zm14.863-1.134a.9.9,0,0,0,.8-.469c.018-.018,1.368-2.34,3.529-2.718a4.908,4.908,0,0,1,4.06,1.494.925.925,0,0,0,1.306-.108.915.915,0,0,0-.1-1.3,6.707,6.707,0,0,0-5.6-1.909c-3.025.54-4.726,3.511-4.8,3.637a.906.906,0,0,0,.351,1.243A.833.833,0,0,0,265.916,54.972ZM255.554,70.888c1.251,2.035,5.257,2.179,5.707,2.179h.018a.919.919,0,0,0,.018-1.837c-1.413-.036-3.646-.45-4.15-1.278-.3-.846,1.468-5.114,3.844-9.309a.928.928,0,0,0-.342-1.26.94.94,0,0,0-1.26.36C257.48,63.11,254.438,69.034,255.554,70.888Zm10.434,9.885a16.234,16.234,0,0,0,8.327-2.755.926.926,0,0,0,.306-1.278.946.946,0,0,0-1.26-.306c-6.257,3.835-9.6,2.124-9.606,2.088a.951.951,0,0,0-1.251.36.908.908,0,0,0,.342,1.243A6.546,6.546,0,0,0,265.988,80.773Zm20.445,5.942a.924.924,0,0,0-1.252.378c-2.674,5.095-9.741,7.31-9.813,7.328a.92.92,0,0,0,.271,1.8,1.389,1.389,0,0,0,.27-.036c.315-.09,7.868-2.448,10.911-8.228A.921.921,0,0,0,286.433,86.715Zm-1.513,126.9a.914.914,0,0,0,.459,1.71.446.446,0,0,0,.153-.018c.3-.036.333-.072,1.342-.936,18.95-16.3,39.836-26.666,58.795-29.205a.924.924,0,0,0,.784-1.044.9.9,0,0,0-.91-.792h-.126c-19.3,2.593-40.529,13.126-59.75,29.636C285.289,213.29,285.037,213.525,284.92,213.615Zm59.192-31a.889.889,0,0,0,.513-.162.914.914,0,0,0,.252-1.279c-.18-.252-17.852-26.611-19.787-50.27-1.009-12.315,8.345-16.853,8.741-17.051a.914.914,0,1,0-.774-1.656c-.108.036-10.92,5.221-9.8,18.851,1.981,24.145,19.914,50.9,20.094,51.171A.943.943,0,0,0,344.112,182.61Zm-99.775-29.871h.153a.932.932,0,0,0,.756-1.062c-3.5-21.246,7.9-33.85,8.021-33.976a.921.921,0,0,0-.045-1.3.892.892,0,0,0-1.305.036c-.5.54-12.154,13.36-8.49,35.524A.927.927,0,0,0,244.337,152.739Zm44.391,137.019h-.072a.919.919,0,0,0-.846.99,281.583,281.583,0,0,0,11.181,54.034.923.923,0,0,0,.882.648,1.389,1.389,0,0,0,.27-.036.925.925,0,0,0,.613-1.152c-9.165-29.835-11.092-53.4-11.11-53.638A.915.915,0,0,0,288.728,289.758Zm2.233-55.222a.88.88,0,0,0-1.08.685.928.928,0,0,0,.693,1.116,1.288,1.288,0,0,0,.306.018c4.033,0,39.818-5.312,62.73-18.167a.927.927,0,0,0,.351-1.261.947.947,0,0,0-1.252-.36c-22.785,12.8-57.778,17.969-61.541,17.969Zm65.007,208.5c-16.771,14.638-39,9.668-39.224,9.614a1,1,0,0,0-1.107.684.935.935,0,0,0,.693,1.117,48.412,48.412,0,0,0,9.669.882c8.39,0,20.778-1.855,31.176-10.893a.936.936,0,0,0,.09-1.314A.966.966,0,0,0,355.968,443.036Zm-112.045-.019a.954.954,0,0,0-1.3.145.925.925,0,0,0,.126,1.3c.468.378,9.363,7.436,24.253,7.436a51.184,51.184,0,0,0,13.729-1.927.912.912,0,0,0,.648-1.134.892.892,0,0,0-1.134-.63C258.138,454.253,244.067,443.126,243.923,443.017ZM355.347,254.5a.923.923,0,0,0,.27-1.278.936.936,0,0,0-1.278-.27c-.216.144-21.687,14.08-56.23,17.9-24.847,2.773-53.079-3.943-53.367-4.015a.968.968,0,0,0-1.117.684.938.938,0,0,0,.685,1.116,200.106,200.106,0,0,0,40.961,4.717,121.124,121.124,0,0,0,13.036-.666C333.291,268.818,355.131,254.648,355.347,254.5Zm-98.218-16.349a1.006,1.006,0,0,0-1.152.613.926.926,0,0,0,.612,1.152,18.85,18.85,0,0,0,5.123.612,29.014,29.014,0,0,0,9.047-1.512.924.924,0,0,0,.585-1.171.978.978,0,0,0-1.161-.594C262.594,239.794,257.192,238.191,257.129,238.155ZM144.453,223.247a.918.918,0,0,0,1.288-.2.911.911,0,0,0-.189-1.278c-3.673-2.7-10.821-1.495-11.136-1.423a.913.913,0,0,0-.748,1.063.87.87,0,0,0,1.072.738C134.83,222.149,141.4,221,144.453,223.247Zm-9.506,3.259h-.063a.92.92,0,0,0-.063,1.837l10.587.684h.063a.92.92,0,0,0,.063-1.837Zm9.218,6.482c-4.015.63-8.714-1.062-8.741-1.08a.907.907,0,0,0-1.189.54.919.919,0,0,0,.541,1.188,23.476,23.476,0,0,0,7.4,1.351,12.355,12.355,0,0,0,2.3-.2.908.908,0,0,0,.757-1.045.927.927,0,0,0-.91-.774A.472.472,0,0,0,144.165,232.988Zm100.19,7.04a.918.918,0,0,0,1.836,0v-45.3a.918.918,0,0,0-1.836,0Zm-38.567-92.672v29.852a.918.918,0,1,0,1.836,0V147.356a.918.918,0,0,0-1.836,0Z" fill="#023047"/></g></svg>